# Blender 3.5.0
# www.blender.org
mtllib ground.mtl
o cobblestone_lowpoly
v -2.306443 0.000000 4.583838
v 2.281142 0.000000 4.578260
v -2.295951 -0.000000 -4.597451
v 2.321251 -0.000000 -4.564647
v -2.301197 -0.000000 -0.006807
v 2.301197 0.000000 0.006807
v -2.303820 0.000000 2.288516
v -0.012650 0.000000 4.581049
v 2.311224 -0.000000 -2.278920
v 0.012650 -0.000000 -4.581049
v -2.298574 -0.000000 -2.302129
v 2.291170 0.000000 2.292534
v 0.000000 0.000000 0.000000
v -0.006325 0.000000 2.290525
v 0.006325 -0.000000 -2.290525
vn -0.0000 1.0000 -0.0000
vt 0.994150 0.006452
vt 0.993348 0.658608
vt 0.146816 0.995748
vt 0.810187 0.991085
vt 0.334594 0.007198
vt 0.336550 0.661460
vt 0.664372 0.006825
vt 0.993749 0.332530
vt 0.808746 0.666153
vt 0.008150 0.662885
vt 0.478501 0.993416
vt 0.146438 0.669453
vt 0.004816 0.007571
vt 0.664949 0.660034
vt 0.335572 0.334329
vt 0.664661 0.333430
vt 0.477592 0.667803
vt 0.006483 0.335228
s 1
usemtl Material.001
f 15/17/1 9/9/1 4/4/1 10/11/1
f 14/16/1 12/14/1 6/6/1 13/15/1
f 7/7/1 14/16/1 13/15/1 5/5/1
f 1/1/1 8/8/1 14/16/1 7/7/1
f 8/8/1 2/2/1 12/14/1 14/16/1
f 11/12/1 15/17/1 10/11/1 3/3/1
f 5/5/1 13/15/1 15/18/1 11/13/1
f 13/15/1 6/6/1 9/10/1 15/18/1
